<mxfile host="app.diagrams.net" modified="2025-09-30T00:00:00.000Z" agent="draw.io" version="24.0.0">
  <diagram name="Local SIM Database Model" id="database-model">
    <mxGraphModel dx="2000" dy="1200" grid="1" gridSize="10" guides="1" tooltips="1" connect="1" arrows="1" fold="1" page="1" pageScale="1" pageWidth="2000" pageHeight="1400" math="0" shadow="0">
      <root>
        <mxCell id="0" />
        <mxCell id="1" parent="0" />

        <!-- ==================== SECCIÓN 1: USUARIOS Y PERMISOS (AZUL) ==================== -->

        <!-- Section Header 1 -->
        <mxCell id="section1-header" value="USUARIOS Y PERMISOS" style="rounded=0;whiteSpace=wrap;html=1;fillColor=#dae8fc;strokeColor=#6c8ebf;fontStyle=1;fontSize=14;align=center;" vertex="1" parent="1">
          <mxGeometry x="40" y="40" width="760" height="40" as="geometry" />
        </mxCell>

        <!-- User Table -->
        <mxCell id="user-table" value="users" style="swimlane;fontStyle=1;align=center;verticalAlign=top;childLayout=stackLayout;horizontal=1;startSize=26;horizontalStack=0;resizeParent=1;resizeParentMax=0;resizeLast=0;collapsible=1;marginBottom=0;fillColor=#dae8fc;strokeColor=#6c8ebf;" vertex="1" parent="1">
          <mxGeometry x="60" y="120" width="200" height="180" as="geometry" />
        </mxCell>
        <mxCell id="user-fields" value="PK id: Integer&#xa;    username: String (unique)&#xa;    hashed_password: String&#xa;    full_name: String&#xa;    email: String (unique)&#xa;    is_active: Boolean&#xa;FK role_id: Integer" style="text;strokeColor=none;fillColor=none;align=left;verticalAlign=top;spacingLeft=4;spacingRight=4;overflow=hidden;rotatable=0;points=[[0,0.5],[1,0.5]];portConstraint=eastwest;" vertex="1" parent="user-table">
          <mxGeometry y="26" width="200" height="154" as="geometry" />
        </mxCell>

        <!-- Role Table -->
        <mxCell id="role-table" value="roles" style="swimlane;fontStyle=1;align=center;verticalAlign=top;childLayout=stackLayout;horizontal=1;startSize=26;horizontalStack=0;resizeParent=1;resizeParentMax=0;resizeLast=0;collapsible=1;marginBottom=0;fillColor=#dae8fc;strokeColor=#6c8ebf;" vertex="1" parent="1">
          <mxGeometry x="320" y="120" width="200" height="80" as="geometry" />
        </mxCell>
        <mxCell id="role-fields" value="PK id: Integer&#xa;    name: String (unique)" style="text;strokeColor=none;fillColor=none;align=left;verticalAlign=top;spacingLeft=4;spacingRight=4;overflow=hidden;rotatable=0;points=[[0,0.5],[1,0.5]];portConstraint=eastwest;" vertex="1" parent="role-table">
          <mxGeometry y="26" width="200" height="54" as="geometry" />
        </mxCell>

        <!-- RoleModule Table -->
        <mxCell id="rolemodule-table" value="role_modules" style="swimlane;fontStyle=1;align=center;verticalAlign=top;childLayout=stackLayout;horizontal=1;startSize=26;horizontalStack=0;resizeParent=1;resizeParentMax=0;resizeLast=0;collapsible=1;marginBottom=0;fillColor=#dae8fc;strokeColor=#6c8ebf;" vertex="1" parent="1">
          <mxGeometry x="580" y="120" width="200" height="100" as="geometry" />
        </mxCell>
        <mxCell id="rolemodule-fields" value="PK id: Integer&#xa;FK role_id: Integer&#xa;FK module_id: Integer" style="text;strokeColor=none;fillColor=none;align=left;verticalAlign=top;spacingLeft=4;spacingRight=4;overflow=hidden;rotatable=0;points=[[0,0.5],[1,0.5]];portConstraint=eastwest;" vertex="1" parent="rolemodule-table">
          <mxGeometry y="26" width="200" height="74" as="geometry" />
        </mxCell>

        <!-- Module Table -->
        <mxCell id="module-table" value="modules" style="swimlane;fontStyle=1;align=center;verticalAlign=top;childLayout=stackLayout;horizontal=1;startSize=26;horizontalStack=0;resizeParent=1;resizeParentMax=0;resizeLast=0;collapsible=1;marginBottom=0;fillColor=#dae8fc;strokeColor=#6c8ebf;" vertex="1" parent="1">
          <mxGeometry x="320" y="240" width="200" height="80" as="geometry" />
        </mxCell>
        <mxCell id="module-fields" value="PK id: Integer&#xa;    name: String (unique)" style="text;strokeColor=none;fillColor=none;align=left;verticalAlign=top;spacingLeft=4;spacingRight=4;overflow=hidden;rotatable=0;points=[[0,0.5],[1,0.5]];portConstraint=eastwest;" vertex="1" parent="module-table">
          <mxGeometry y="26" width="200" height="54" as="geometry" />
        </mxCell>

        <!-- ==================== SECCIÓN 2: VENTAS (VERDE) ==================== -->

        <!-- Section Header 2 -->
        <mxCell id="section2-header" value="VENTAS" style="rounded=0;whiteSpace=wrap;html=1;fillColor=#d5e8d4;strokeColor=#82b366;fontStyle=1;fontSize=14;align=center;" vertex="1" parent="1">
          <mxGeometry x="40" y="380" width="600" height="40" as="geometry" />
        </mxCell>

        <!-- Sale Table -->
        <mxCell id="sale-table" value="sales" style="swimlane;fontStyle=1;align=center;verticalAlign=top;childLayout=stackLayout;horizontal=1;startSize=26;horizontalStack=0;resizeParent=1;resizeParentMax=0;resizeLast=0;collapsible=1;marginBottom=0;fillColor=#d5e8d4;strokeColor=#82b366;" vertex="1" parent="1">
          <mxGeometry x="60" y="460" width="240" height="200" as="geometry" />
        </mxCell>
        <mxCell id="sale-fields" value="PK id: UUID&#xa;    customer_id: String&#xa;    customer_identification: String&#xa;    payment_method: String&#xa;    siigo_invoice_id: String&#xa;    total: Numeric&#xa;    created_at: DateTime&#xa;    estado: String (activa/anulada)&#xa;FK user_id: Integer" style="text;strokeColor=none;fillColor=none;align=left;verticalAlign=top;spacingLeft=4;spacingRight=4;overflow=hidden;rotatable=0;points=[[0,0.5],[1,0.5]];portConstraint=eastwest;" vertex="1" parent="sale-table">
          <mxGeometry y="26" width="240" height="174" as="geometry" />
        </mxCell>

        <!-- SaleItem Table -->
        <mxCell id="saleitem-table" value="sale_items" style="swimlane;fontStyle=1;align=center;verticalAlign=top;childLayout=stackLayout;horizontal=1;startSize=26;horizontalStack=0;resizeParent=1;resizeParentMax=0;resizeLast=0;collapsible=1;marginBottom=0;fillColor=#d5e8d4;strokeColor=#82b366;" vertex="1" parent="1">
          <mxGeometry x="380" y="460" width="200" height="160" as="geometry" />
        </mxCell>
        <mxCell id="saleitem-fields" value="PK id: UUID&#xa;FK sale_id: UUID&#xa;    product_code: String&#xa;    description: String&#xa;    quantity: Integer&#xa;    unit_price: Numeric&#xa;    iva: Numeric" style="text;strokeColor=none;fillColor=none;align=left;verticalAlign=top;spacingLeft=4;spacingRight=4;overflow=hidden;rotatable=0;points=[[0,0.5],[1,0.5]];portConstraint=eastwest;" vertex="1" parent="saleitem-table">
          <mxGeometry y="26" width="200" height="134" as="geometry" />
        </mxCell>

        <!-- ==================== SECCIÓN 3: SIMS (ROJO) ==================== -->

        <!-- Section Header 3 -->
        <mxCell id="section3-header" value="INVENTARIO DE SIMS" style="rounded=0;whiteSpace=wrap;html=1;fillColor=#f8cecc;strokeColor=#b85450;fontStyle=1;fontSize=14;align=center;" vertex="1" parent="1">
          <mxGeometry x="860" y="40" width="740" height="40" as="geometry" />
        </mxCell>

        <!-- SimLote Table -->
        <mxCell id="simlote-table" value="sim_lotes" style="swimlane;fontStyle=1;align=center;verticalAlign=top;childLayout=stackLayout;horizontal=1;startSize=26;horizontalStack=0;resizeParent=1;resizeParentMax=0;resizeLast=0;collapsible=1;marginBottom=0;fillColor=#f8cecc;strokeColor=#b85450;" vertex="1" parent="1">
          <mxGeometry x="880" y="120" width="200" height="140" as="geometry" />
        </mxCell>
        <mxCell id="simlote-fields" value="PK id: String&#xa;    operador: String&#xa;    plan_asignado: String&#xa;    estado: String&#xa;    fecha_registro: DateTime" style="text;strokeColor=none;fillColor=none;align=left;verticalAlign=top;spacingLeft=4;spacingRight=4;overflow=hidden;rotatable=0;points=[[0,0.5],[1,0.5]];portConstraint=eastwest;" vertex="1" parent="simlote-table">
          <mxGeometry y="26" width="200" height="114" as="geometry" />
        </mxCell>

        <!-- SimDetalle Table -->
        <mxCell id="simdetalle-table" value="sim_detalle" style="swimlane;fontStyle=1;align=center;verticalAlign=top;childLayout=stackLayout;horizontal=1;startSize=26;horizontalStack=0;resizeParent=1;resizeParentMax=0;resizeLast=0;collapsible=1;marginBottom=0;fillColor=#f8cecc;strokeColor=#b85450;" vertex="1" parent="1">
          <mxGeometry x="1160" y="120" width="240" height="240" as="geometry" />
        </mxCell>
        <mxCell id="simdetalle-fields" value="PK id: String&#xa;FK lote_id: String&#xa;    numero_linea: String&#xa;    iccid: String (unique)&#xa;    estado: Enum (SimStatus)&#xa;    fecha_registro: DateTime&#xa;    plan_asignado: String&#xa;    fecha_ultima_recarga: DateTime&#xa;    winred_product_id: String&#xa;    vendida: Boolean&#xa;    fecha_venta: DateTime&#xa;    venta_id: String" style="text;strokeColor=none;fillColor=none;align=left;verticalAlign=top;spacingLeft=4;spacingRight=4;overflow=hidden;rotatable=0;points=[[0,0.5],[1,0.5]];portConstraint=eastwest;" vertex="1" parent="simdetalle-table">
          <mxGeometry y="26" width="240" height="214" as="geometry" />
        </mxCell>

        <!-- PlanHomologacion Table -->
        <mxCell id="planhomologacion-table" value="plan_homologacion" style="swimlane;fontStyle=1;align=center;verticalAlign=top;childLayout=stackLayout;horizontal=1;startSize=26;horizontalStack=0;resizeParent=1;resizeParentMax=0;resizeLast=0;collapsible=1;marginBottom=0;fillColor=#f5f5f5;strokeColor=#666666;fontColor=#333333;" vertex="1" parent="1">
          <mxGeometry x="1480" y="120" width="240" height="140" as="geometry" />
        </mxCell>
        <mxCell id="planhomologacion-fields" value="PK winred_product_id: String&#xa;    operador: String&#xa;    nombre_winred: String&#xa;    siigo_code: String&#xa;    activo: Boolean" style="text;strokeColor=none;fillColor=none;align=left;verticalAlign=top;spacingLeft=4;spacingRight=4;overflow=hidden;rotatable=0;points=[[0,0.5],[1,0.5]];portConstraint=eastwest;" vertex="1" parent="planhomologacion-table">
          <mxGeometry y="26" width="240" height="114" as="geometry" />
        </mxCell>

        <!-- ==================== SECCIÓN 4: TURNOS Y CAJA (PÚRPURA) ==================== -->

        <!-- Section Header 4 -->
        <mxCell id="section4-header" value="TURNOS Y GESTIÓN DE CAJA" style="rounded=0;whiteSpace=wrap;html=1;fillColor=#e1d5e7;strokeColor=#9673a6;fontStyle=1;fontSize=14;align=center;" vertex="1" parent="1">
          <mxGeometry x="40" y="720" width="840" height="40" as="geometry" />
        </mxCell>

        <!-- Turno Table -->
        <mxCell id="turno-table" value="turnos" style="swimlane;fontStyle=1;align=center;verticalAlign=top;childLayout=stackLayout;horizontal=1;startSize=26;horizontalStack=0;resizeParent=1;resizeParentMax=0;resizeLast=0;collapsible=1;marginBottom=0;fillColor=#e1d5e7;strokeColor=#9673a6;" vertex="1" parent="1">
          <mxGeometry x="60" y="800" width="200" height="140" as="geometry" />
        </mxCell>
        <mxCell id="turno-fields" value="PK id: UUID&#xa;FK user_id: Integer&#xa;    fecha_apertura: DateTime&#xa;    fecha_cierre: DateTime&#xa;    estado: String (abierto)" style="text;strokeColor=none;fillColor=none;align=left;verticalAlign=top;spacingLeft=4;spacingRight=4;overflow=hidden;rotatable=0;points=[[0,0.5],[1,0.5]];portConstraint=eastwest;" vertex="1" parent="turno-table">
          <mxGeometry y="26" width="200" height="114" as="geometry" />
        </mxCell>

        <!-- CierreCaja Table -->
        <mxCell id="cierrecaja-table" value="cierres_caja" style="swimlane;fontStyle=1;align=center;verticalAlign=top;childLayout=stackLayout;horizontal=1;startSize=26;horizontalStack=0;resizeParent=1;resizeParentMax=0;resizeLast=0;collapsible=1;marginBottom=0;fillColor=#e1d5e7;strokeColor=#9673a6;" vertex="1" parent="1">
          <mxGeometry x="320" y="800" width="280" height="300" as="geometry" />
        </mxCell>
        <mxCell id="cierrecaja-fields" value="PK id: UUID&#xa;FK turno_id: UUID&#xa;    fecha_cierre: DateTime&#xa;    total_ventas_electronicas: Numeric&#xa;    total_ventas_efectivo: Numeric&#xa;    total_ventas_datafono: Numeric&#xa;    total_ventas_dollars: Numeric&#xa;    efectivo_reportado: Numeric&#xa;    datafono_reportado: Numeric&#xa;    dolares_reportado: Numeric&#xa;    diferencia_efectivo: Numeric (computed)&#xa;    diferencia_datafono: Numeric (computed)&#xa;    diferencia_dolares: Numeric (computed)&#xa;    observaciones: Text" style="text;strokeColor=none;fillColor=none;align=left;verticalAlign=top;spacingLeft=4;spacingRight=4;overflow=hidden;rotatable=0;points=[[0,0.5],[1,0.5]];portConstraint=eastwest;" vertex="1" parent="cierrecaja-table">
          <mxGeometry y="26" width="280" height="274" as="geometry" />
        </mxCell>

        <!-- MovimientoCaja Table -->
        <mxCell id="movimientocaja-table" value="movimientos_caja" style="swimlane;fontStyle=1;align=center;verticalAlign=top;childLayout=stackLayout;horizontal=1;startSize=26;horizontalStack=0;resizeParent=1;resizeParentMax=0;resizeLast=0;collapsible=1;marginBottom=0;fillColor=#e1d5e7;strokeColor=#9673a6;" vertex="1" parent="1">
          <mxGeometry x="660" y="800" width="200" height="180" as="geometry" />
        </mxCell>
        <mxCell id="movimientocaja-fields" value="PK id: UUID&#xa;FK turno_id: UUID&#xa;FK sale_id: UUID&#xa;    tipo: String&#xa;    monto: Numeric&#xa;    descripcion: Text&#xa;    fecha: DateTime&#xa;    metodo_pago: String" style="text;strokeColor=none;fillColor=none;align=left;verticalAlign=top;spacingLeft=4;spacingRight=4;overflow=hidden;rotatable=0;points=[[0,0.5],[1,0.5]];portConstraint=eastwest;" vertex="1" parent="movimientocaja-table">
          <mxGeometry y="26" width="200" height="154" as="geometry" />
        </mxCell>

        <!-- InventarioSimTurno Table -->
        <mxCell id="inventariosimturno-table" value="inventario_sim_turno" style="swimlane;fontStyle=1;align=center;verticalAlign=top;childLayout=stackLayout;horizontal=1;startSize=26;horizontalStack=0;resizeParent=1;resizeParentMax=0;resizeLast=0;collapsible=1;marginBottom=0;fillColor=#e1d5e7;strokeColor=#9673a6;" vertex="1" parent="1">
          <mxGeometry x="60" y="1000" width="260" height="280" as="geometry" />
        </mxCell>
        <mxCell id="inventariosimturno-fields" value="PK id: UUID&#xa;FK turno_id: UUID&#xa;    plan: String&#xa;    cantidad_inicial_reportada: Integer&#xa;    cantidad_final_reportada: Integer&#xa;    cantidad_inicial_sistema: Integer&#xa;    cantidad_final_sistema: Integer&#xa;    diferencia_inicial: Integer (computed)&#xa;    diferencia_final: Integer&#xa;    fecha_registro: DateTime&#xa;    fecha_cierre: DateTime&#xa;    observaciones_apertura: Text&#xa;    observaciones_cierre: Text" style="text;strokeColor=none;fillColor=none;align=left;verticalAlign=top;spacingLeft=4;spacingRight=4;overflow=hidden;rotatable=0;points=[[0,0.5],[1,0.5]];portConstraint=eastwest;" vertex="1" parent="inventariosimturno-table">
          <mxGeometry y="26" width="260" height="254" as="geometry" />
        </mxCell>

        <!-- ==================== SECCIÓN 5: DEVOLUCIONES (NARANJA) ==================== -->

        <!-- Section Header 5 -->
        <mxCell id="section5-header" value="DEVOLUCIONES" style="rounded=0;whiteSpace=wrap;html=1;fillColor=#ffe6cc;strokeColor=#d79b00;fontStyle=1;fontSize=14;align=center;" vertex="1" parent="1">
          <mxGeometry x="960" y="380" width="640" height="40" as="geometry" />
        </mxCell>

        <!-- DevolucionSim Table -->
        <mxCell id="devolucion-table" value="devoluciones_sim" style="swimlane;fontStyle=1;align=center;verticalAlign=top;childLayout=stackLayout;horizontal=1;startSize=26;horizontalStack=0;resizeParent=1;resizeParentMax=0;resizeLast=0;collapsible=1;marginBottom=0;fillColor=#ffe6cc;strokeColor=#d79b00;" vertex="1" parent="1">
          <mxGeometry x="980" y="460" width="260" height="340" as="geometry" />
        </mxCell>
        <mxCell id="devolucion-fields" value="PK id: UUID&#xa;FK sale_id: UUID&#xa;FK sim_defectuosa_id: String&#xa;FK sim_reemplazo_id: String&#xa;FK user_id: Integer&#xa;FK turno_id: UUID&#xa;    tipo_devolucion: String&#xa;    sim_defectuosa_iccid: String&#xa;    sim_defectuosa_numero: String&#xa;    sim_reemplazo_iccid: String&#xa;    sim_reemplazo_numero: String&#xa;    motivo: Text&#xa;    fecha_devolucion: DateTime&#xa;    cliente_nombre: String&#xa;    cliente_identificacion: String&#xa;    cliente_telefono: String&#xa;    monto_devuelto: Numeric&#xa;    metodo_devolucion: String" style="text;strokeColor=none;fillColor=none;align=left;verticalAlign=top;spacingLeft=4;spacingRight=4;overflow=hidden;rotatable=0;points=[[0,0.5],[1,0.5]];portConstraint=eastwest;" vertex="1" parent="devolucion-table">
          <mxGeometry y="26" width="260" height="314" as="geometry" />
        </mxCell>

        <!-- ==================== RELATIONSHIPS ==================== -->

        <!-- User to Role -->
        <mxCell id="user-role-rel" style="edgeStyle=orthogonalEdgeStyle;rounded=0;orthogonalLoop=1;jettySize=auto;html=1;exitX=1;exitY=0.5;exitDx=0;exitDy=0;entryX=0;entryY=0.5;entryDx=0;entryDy=0;endArrow=ERmany;endFill=0;startArrow=ERone;startFill=0;" edge="1" parent="1" source="user-fields" target="role-fields">
          <mxGeometry relative="1" as="geometry" />
        </mxCell>

        <!-- Role to RoleModule -->
        <mxCell id="role-rolemodule-rel" style="edgeStyle=orthogonalEdgeStyle;rounded=0;orthogonalLoop=1;jettySize=auto;html=1;exitX=1;exitY=0.5;exitDx=0;exitDy=0;entryX=0;entryY=0.5;entryDx=0;entryDy=0;endArrow=ERmany;endFill=0;startArrow=ERone;startFill=0;" edge="1" parent="1" source="role-fields" target="rolemodule-fields">
          <mxGeometry relative="1" as="geometry" />
        </mxCell>

        <!-- Module to RoleModule -->
        <mxCell id="module-rolemodule-rel" style="edgeStyle=orthogonalEdgeStyle;rounded=0;orthogonalLoop=1;jettySize=auto;html=1;exitX=1;exitY=0.5;exitDx=0;exitDy=0;entryX=0;entryY=1;entryDx=0;entryDy=0;endArrow=ERmany;endFill=0;startArrow=ERone;startFill=0;" edge="1" parent="1" source="module-fields" target="rolemodule-table">
          <mxGeometry relative="1" as="geometry">
            <Array as="points">
              <mxPoint x="560" y="293" />
              <mxPoint x="560" y="220" />
            </Array>
          </mxGeometry>
        </mxCell>

        <!-- Sale to User -->
        <mxCell id="sale-user-rel" style="edgeStyle=orthogonalEdgeStyle;rounded=0;orthogonalLoop=1;jettySize=auto;html=1;exitX=0;exitY=0.25;exitDx=0;exitDy=0;entryX=0;entryY=1;entryDx=0;entryDy=0;endArrow=ERmany;endFill=0;startArrow=ERone;startFill=0;" edge="1" parent="1" source="sale-fields" target="user-table">
          <mxGeometry relative="1" as="geometry">
            <Array as="points">
              <mxPoint x="20" y="530" />
              <mxPoint x="20" y="300" />
            </Array>
          </mxGeometry>
        </mxCell>

        <!-- Sale to SaleItem -->
        <mxCell id="sale-saleitem-rel" style="edgeStyle=orthogonalEdgeStyle;rounded=0;orthogonalLoop=1;jettySize=auto;html=1;exitX=1;exitY=0.5;exitDx=0;exitDy=0;entryX=0;entryY=0.5;entryDx=0;entryDy=0;endArrow=ERmany;endFill=0;startArrow=ERone;startFill=0;" edge="1" parent="1" source="sale-fields" target="saleitem-fields">
          <mxGeometry relative="1" as="geometry" />
        </mxCell>

        <!-- SimLote to SimDetalle -->
        <mxCell id="simlote-simdetalle-rel" style="edgeStyle=orthogonalEdgeStyle;rounded=0;orthogonalLoop=1;jettySize=auto;html=1;exitX=1;exitY=0.5;exitDx=0;exitDy=0;entryX=0;entryY=0.5;entryDx=0;entryDy=0;endArrow=ERmany;endFill=0;startArrow=ERone;startFill=0;" edge="1" parent="1" source="simlote-fields" target="simdetalle-fields">
          <mxGeometry relative="1" as="geometry" />
        </mxCell>

        <!-- Turno to User -->
        <mxCell id="turno-user-rel" style="edgeStyle=orthogonalEdgeStyle;rounded=0;orthogonalLoop=1;jettySize=auto;html=1;exitX=0;exitY=0.25;exitDx=0;exitDy=0;entryX=0;entryY=0.5;entryDx=0;entryDy=0;endArrow=ERmany;endFill=0;startArrow=ERone;startFill=0;" edge="1" parent="1" source="turno-fields" target="user-fields">
          <mxGeometry relative="1" as="geometry">
            <Array as="points">
              <mxPoint x="20" y="855" />
              <mxPoint x="20" y="223" />
            </Array>
          </mxGeometry>
        </mxCell>

        <!-- Turno to CierreCaja -->
        <mxCell id="turno-cierre-rel" style="edgeStyle=orthogonalEdgeStyle;rounded=0;orthogonalLoop=1;jettySize=auto;html=1;exitX=1;exitY=0.5;exitDx=0;exitDy=0;entryX=0;entryY=0.5;entryDx=0;entryDy=0;endArrow=ERone;endFill=0;startArrow=ERone;startFill=0;" edge="1" parent="1" source="turno-fields" target="cierrecaja-fields">
          <mxGeometry relative="1" as="geometry" />
        </mxCell>

        <!-- Turno to MovimientoCaja -->
        <mxCell id="turno-movimiento-rel" style="edgeStyle=orthogonalEdgeStyle;rounded=0;orthogonalLoop=1;jettySize=auto;html=1;exitX=1;exitY=0.75;exitDx=0;exitDy=0;entryX=0;entryY=0.25;entryDx=0;entryDy=0;endArrow=ERmany;endFill=0;startArrow=ERone;startFill=0;" edge="1" parent="1" source="turno-fields" target="movimientocaja-fields">
          <mxGeometry relative="1" as="geometry">
            <Array as="points">
              <mxPoint x="280" y="912" />
              <mxPoint x="280" y="865" />
            </Array>
          </mxGeometry>
        </mxCell>

        <!-- Turno to InventarioSimTurno -->
        <mxCell id="turno-inventario-rel" style="edgeStyle=orthogonalEdgeStyle;rounded=0;orthogonalLoop=1;jettySize=auto;html=1;exitX=0.5;exitY=1;exitDx=0;exitDy=0;entryX=0.5;entryY=0;entryDx=0;entryDy=0;endArrow=ERmany;endFill=0;startArrow=ERone;startFill=0;" edge="1" parent="1" source="turno-table" target="inventariosimturno-table">
          <mxGeometry relative="1" as="geometry" />
        </mxCell>

        <!-- MovimientoCaja to Sale -->
        <mxCell id="movimiento-sale-rel" style="edgeStyle=orthogonalEdgeStyle;rounded=0;orthogonalLoop=1;jettySize=auto;html=1;exitX=0;exitY=0.25;exitDx=0;exitDy=0;entryX=1;entryY=0.75;entryDx=0;entryDy=0;endArrow=ERmany;endFill=0;startArrow=ERzeroToOne;startFill=0;" edge="1" parent="1" source="movimientocaja-fields" target="sale-fields">
          <mxGeometry relative="1" as="geometry">
            <Array as="points">
              <mxPoint x="640" y="865" />
              <mxPoint x="640" y="617" />
            </Array>
          </mxGeometry>
        </mxCell>

        <!-- DevolucionSim to Sale -->
        <mxCell id="devolucion-sale-rel" style="edgeStyle=orthogonalEdgeStyle;rounded=0;orthogonalLoop=1;jettySize=auto;html=1;exitX=0;exitY=0.1;exitDx=0;exitDy=0;entryX=1;entryY=0.25;entryDx=0;entryDy=0;endArrow=ERmany;endFill=0;startArrow=ERone;startFill=0;" edge="1" parent="1" source="devolucion-fields" target="sale-fields">
          <mxGeometry relative="1" as="geometry">
            <Array as="points">
              <mxPoint x="920" y="517" />
              <mxPoint x="920" y="530" />
            </Array>
          </mxGeometry>
        </mxCell>

        <!-- DevolucionSim to SimDetalle (defectuosa) -->
        <mxCell id="devolucion-simdef-rel" style="edgeStyle=orthogonalEdgeStyle;rounded=0;orthogonalLoop=1;jettySize=auto;html=1;exitX=0.5;exitY=0;exitDx=0;exitDy=0;entryX=0;entryY=0.75;entryDx=0;entryDy=0;endArrow=ERmany;endFill=0;startArrow=ERone;startFill=0;dashed=1;" edge="1" parent="1" source="devolucion-table" target="simdetalle-fields">
          <mxGeometry relative="1" as="geometry">
            <Array as="points">
              <mxPoint x="1110" y="300" />
            </Array>
          </mxGeometry>
        </mxCell>

        <!-- DevolucionSim to SimDetalle (reemplazo) -->
        <mxCell id="devolucion-simreempl-rel" style="edgeStyle=orthogonalEdgeStyle;rounded=0;orthogonalLoop=1;jettySize=auto;html=1;exitX=0.75;exitY=0;exitDx=0;exitDy=0;entryX=1;entryY=0.75;entryDx=0;entryDy=0;endArrow=ERmany;endFill=0;startArrow=ERzeroToOne;startFill=0;dashed=1;" edge="1" parent="1" source="devolucion-table" target="simdetalle-fields">
          <mxGeometry relative="1" as="geometry">
            <Array as="points">
              <mxPoint x="1175" y="420" />
              <mxPoint x="1440" y="420" />
              <mxPoint x="1440" y="300" />
            </Array>
          </mxGeometry>
        </mxCell>

        <!-- DevolucionSim to User -->
        <mxCell id="devolucion-user-rel" style="edgeStyle=orthogonalEdgeStyle;rounded=0;orthogonalLoop=1;jettySize=auto;html=1;exitX=0;exitY=0.2;exitDx=0;exitDy=0;entryX=1;entryY=0.5;entryDx=0;entryDy=0;endArrow=ERmany;endFill=0;startArrow=ERone;startFill=0;" edge="1" parent="1" source="devolucion-fields" target="user-fields">
          <mxGeometry relative="1" as="geometry">
            <Array as="points">
              <mxPoint x="840" y="549" />
              <mxPoint x="840" y="223" />
            </Array>
          </mxGeometry>
        </mxCell>

        <!-- DevolucionSim to Turno -->
        <mxCell id="devolucion-turno-rel" style="edgeStyle=orthogonalEdgeStyle;rounded=0;orthogonalLoop=1;jettySize=auto;html=1;exitX=0;exitY=0.3;exitDx=0;exitDy=0;entryX=1;entryY=0.5;entryDx=0;entryDy=0;endArrow=ERmany;endFill=0;startArrow=ERzeroToOne;startFill=0;" edge="1" parent="1" source="devolucion-fields" target="turno-fields">
          <mxGeometry relative="1" as="geometry">
            <Array as="points">
              <mxPoint x="940" y="580" />
              <mxPoint x="940" y="883" />
            </Array>
          </mxGeometry>
        </mxCell>

        <!-- ==================== LEGEND ==================== -->

        <mxCell id="legend" value="LEYENDA" style="swimlane;fontStyle=1;align=center;verticalAlign=top;childLayout=stackLayout;horizontal=1;startSize=30;horizontalStack=0;resizeParent=1;resizeParentMax=0;resizeLast=0;collapsible=1;marginBottom=0;fillColor=#f5f5f5;strokeColor=#666666;fontColor=#333333;fontSize=12;" vertex="1" parent="1">
          <mxGeometry x="1360" y="800" width="260" height="240" as="geometry" />
        </mxCell>
        <mxCell id="legend-text" value="CATEGORÍAS POR COLOR:&#xa;&#xa;🔵 Usuarios y Permisos (Azul)&#xa;🟢 Ventas (Verde)&#xa;🔴 Inventario de SIMs (Rojo)&#xa;🟣 Turnos y Caja (Púrpura)&#xa;🟠 Devoluciones (Naranja)&#xa;⚪ Catálogos (Gris)&#xa;&#xa;NOTACIÓN:&#xa;PK = Primary Key&#xa;FK = Foreign Key&#xa;--- = Relación opcional" style="text;strokeColor=none;fillColor=none;align=left;verticalAlign=top;spacingLeft=4;spacingRight=4;overflow=hidden;rotatable=0;points=[[0,0.5],[1,0.5]];portConstraint=eastwest;" vertex="1" parent="legend">
          <mxGeometry y="30" width="260" height="210" as="geometry" />
        </mxCell>

      </root>
    </mxGraphModel>
  </diagram>
</mxfile>
